<svg id="Layer_1" data-name="Layer 1" xmlns="http://www.w3.org/2000/svg" viewBox="0 0 446.89 182.28"><defs><style>.cls-1{fill:#0b864b;}.cls-2,.cls-3{fill:#fff;}.cls-3{font-size:16px;font-family:MyriadPro-Regular, Myriad Pro;letter-spacing:0.03em;}.cls-4{letter-spacing:0.01em;}.cls-5{letter-spacing:0.02em;}.cls-6{letter-spacing:0.02em;}.cls-7{letter-spacing:0.02em;}.cls-8{letter-spacing:0.03em;}.cls-10,.cls-9{fill:none;stroke:#fff;stroke-miterlimit:10;}.cls-10{stroke-dasharray:3.99 3.99;}</style></defs><title>greenway-logo_1</title><path class="cls-1" d="M34,72.36c9.14.18,12.86,6.48,11.91,18-8.73-.05-13.49-4.56-15.14-12.56,3.2,3.17,6.42,5.77,9.83,5.71-.47-4.53-3.33-8-6.6-11.19Z"/><path class="cls-1" d="M22.86,82.27c-3.86,6.35-3.57,13.89,1,22.63,8-7.39,8.57-15.06,4.51-22.87-.1,5.1-.71,9.77-3.39,12.72-1.81-2.28-2.21-7-2.09-12.48Z"/><path class="cls-1" d="M22.46,70.35C14.44,69,8,71.74,4.74,82.43,14.74,89,20.33,87,23,78.32c-4.1,1.66-7.73,2.61-9.67,1.05.73-2.85,4.51-6.17,9.1-9Z"/><path class="cls-1" d="M20.69,66.24C11.44,67.84,6,63.73,4.74,53.52c7.59-4.74,13.67-2.09,18.69,5.63-3.8-1.3-7.53-2-11.11-1.12.29,2.63,3.13,5.37,8.37,8.21Z"/><path class="cls-1" d="M20.84,52.63c4,8.77,10.41,8.87,18.29,3.46-6.59.08-10.32-1.26-11.12-4.19,2.23-2,6.19-2.17,10.56-1.85-4-7.63-10.32-8.92-17.73,2.58Z"/><path class="cls-1" d="M59.91,62.53C56.62,53.81,57.42,46.24,64,40.3c5.06,5.15,6,12.71,3.78,22.16a33.42,33.42,0,0,0-4-13.45c-2.32,3-3.27,8-3.87,13.52Z"/><path class="cls-1" d="M50.57,58.59c-7.46-1.8-11.23-7.76-10.31-19,7.07.06,12.21,3.89,14.34,13.61-2.74-2.89-5.48-4.92-8.22-5.23-.69,4.06,1.43,7.43,4.19,10.63Z"/><path class="cls-1" d="M15.21,29.11c3,9.19,7.93,14.67,16.51,13.13C27,39.94,24.44,37,24,33.38c3-.89,6.55.3,10.39,2.41C30.94,26,24,25.13,15.21,29.11Z"/><path class="cls-1" d="M32.77,16.62c8,.72,13.65,4.8,15.38,14.74-3.32-3.28-6.66-5.81-10-5.87.59,4.18,3,7.86,6.6,11.19-7.23-1.92-12.51-6.73-12-20.06Z"/><path class="cls-1" d="M52.58,20.81c7.13,4.85,8.66,12.37,6.77,21.51-.57-4.82-2.2-9-5.56-12.08-1.59,3.68-1.68,8.43-1.13,13.61-5-7.22-4.48-15-.08-23Z"/><path class="cls-1" d="M67.24,14c-5.42,8.08-4.83,16.16-.81,24.24-.64-5.79-.27-10.72,2.1-13.93,2.63,2.37,3.37,7.37,3.22,13.61,3.57-9.47,2.88-17.68-4.51-23.92Z"/><path class="cls-1" d="M82.86,30.64C74.56,34,72.52,41.54,72.4,50.29L80,39.75,77.39,53.43c5.55-5.08,9.17-11.47,5.47-22.79Z"/><path class="cls-1" d="M86.4,4.62c-7.82,3.93-10.15,11.89-9.81,21.83l7.16-11.67-.48,12.88c4.94-6.61,6.78-14.07,3.13-23Z"/><path class="cls-1" d="M96.4,17c-5.78,5.76-7.23,13.52-4.2,23.35l4.2-13.6,2.65,13.6c3.32-8.17,3.26-16-2.65-23.35Z"/><path class="cls-1" d="M117.74,11.71c-10.57,1.65-13.13,9.57-12.72,19.82l8.53-12.17-3.79,15.06c6.53-4.24,10.69-10.52,8-22.71Z"/><path class="cls-1" d="M120.88,32c-9.88,3.73-13.12,9.48-12.49,16.43L117,40.15l-3.71,12.64c5.81-3.28,9.5-8.91,7.57-20.78Z"/><path class="cls-1" d="M117.58,58c2.48-7.18,8.53-9.93,19.17-7C133.69,61.82,128,65.7,120.64,65.2c3.65-2.24,6.66-4.92,7.73-8.87-2.51-1.75-6.55-.29-10.79,1.62Z"/><path class="cls-1" d="M138.36,28c-9.32.48-13.8,5.8-14.74,14.66L133,34.5,127.89,48c6.72-2.9,11.69-7.84,10.47-20Z"/><path class="cls-1" d="M164.86,29.27c2.29,11.94-1.25,18.54-8.62,21.66l3.94-13-8.45,9c-.5-9.45,3.31-15.77,13.13-17.72Z"/><path class="cls-1" d="M149.31,41.84c-5.82,3.07-9,9.14-10.55,17.15l7.65-8.38L144.8,64.15c6.34-4.93,8.91-11.81,4.51-22.31Z"/><path class="cls-1" d="M155,61.09c1.38-8.67,6.81-12.44,18.29-8.86-.68,10-6.18,14-13.94,15l6.44-9.75Z"/><path class="cls-1" d="M151.49,68.49c7.87-1.95,14.93-1.79,17.63,9.83-8.34,5.79-14.25,3.66-18.52-3.86l12,1Z"/><path class="cls-1" d="M25.2,81C26,51.78,61.6,53.4,57.41,88.87,54.17,58.23,33.86,58.94,25.2,81Z"/><path class="cls-1" d="M59.67,82.75c2-17.23,26.4-26.89,38-43.49-6.54,18.52-32.59,28.35-38,43.49Z"/><path class="cls-1" d="M111.05,52.47C102.84,64,70.92,61.53,65.63,77c10.66-13,43.65-8.26,45.42-24.48Z"/><path class="cls-1" d="M67.4,100.63c2.14-18.48,12.74-28.5,32.05-29.8,16.49-.7,35.88,6,49.46-2.09C130.7,70.67,111.7,65.52,97.2,66.8c-20.54,1.82-29,14.4-29.8,33.83Z"/><path class="cls-1" d="M76.59,71.47c-42.08,26.28-23.6,75.69,38.33,67-13.1,1-75.49-9.07-38.33-67Z"/><path class="cls-1" d="M43.29,122.05c-.45,17.81-8.2,22.68-23.68,13.86,11.83,3.5,19.15-2.32,23.68-13.86Z"/><path class="cls-1" d="M50.69,111.1c-2.13,11.67-1,19.69,5.48,21.9-14,7.2.6,12.14-25.93,13.38,10.34-3.4,15.38-9.55,15-18.53-1.13-7.17,1-12.58,5.47-16.75Z"/><path class="cls-1" d="M52.42,108.68c-1,22.91,11.9,35.89,43.11,36.89C72.17,141,55.75,131.42,52.42,108.68Z"/><path class="cls-1" d="M110.34,131.13v-1.25a23.4,23.4,0,0,1-10.79,2.61,22.9,22.9,0,0,1-21.4-14.16,23.55,23.55,0,0,1-1.76-9.11,23.13,23.13,0,0,1,1.79-9A23.39,23.39,0,0,1,90.5,87.67a23.22,23.22,0,0,1,19,.4,24.48,24.48,0,0,1,8.15,6.33L108,100.81a12.65,12.65,0,0,0-3.89-2.69,11,11,0,0,0-4.51-.94,10.84,10.84,0,0,0-4.63,1,12.3,12.3,0,0,0-3.69,2.64,12.15,12.15,0,0,0-2.44,3.84,12.37,12.37,0,0,0-.88,4.62,12.65,12.65,0,0,0,.88,4.66,11.87,11.87,0,0,0,2.47,3.86A12.69,12.69,0,0,0,95,120.43a10.84,10.84,0,0,0,4.63,1,11.46,11.46,0,0,0,9.13-4.54H101V106.26h19.35v24.87Z"/><path class="cls-1" d="M154.55,131.13l-7.66-13.63h-7.44l.06,13.63H127.36v-44h22.09a9.65,9.65,0,0,1,3.23.59,15.75,15.75,0,0,1,3.18,1.59,19.37,19.37,0,0,1,2.84,2.25,16.51,16.51,0,0,1,2.21,2.55,12.44,12.44,0,0,1,1.73,3.83,15.79,15.79,0,0,1,.6,4.17,12.7,12.7,0,0,1-1.53,6.13,13.89,13.89,0,0,1-4.26,4.77l10.33,18.17ZM146,96.9h-6.87v9.48H146a5,5,0,0,0,1.93-.37,4.72,4.72,0,0,0,1.59-1,5,5,0,0,0,1.08-1.49,4.52,4.52,0,0,0,0-3.72,4.87,4.87,0,0,0-1.08-1.5,5,5,0,0,0-1.59-1A5.17,5.17,0,0,0,146,96.9Z"/><path class="cls-1" d="M172.32,131.13v-44h35.14v10.5H183.79v6.3h22.3v10.5h-22.3v6.3h23.67v10.45Z"/><path class="cls-1" d="M214.89,131.13v-44H250v10.5H226.36v6.3h22.3v10.5h-22.3v6.3H250v10.45Z"/><path class="cls-1" d="M284.2,131.07l-15.27-23.5v23.5H257.18v-44h11.69L284.2,110.8V87.08H296v44Z"/><path class="cls-2" d="M351.12,131.13h-9.43l-7-19-7,19h-9.42L302,87.19h12.71L323,109.44l8.23-22.25h7l8.24,22.25,8.23-22.25h12.71Z"/><path class="cls-2" d="M391,131.13l-2.27-6.08H375.13l-2.27,6.08H360.43l16.29-44H387.1l16.29,44.05Zm-9-28-3.52,11.64h7Z"/><path class="cls-2" d="M423.77,130.08V116l15.38-28.84H425.3l-7.77,15.33-7.84-15.33H395.85L411.23,116v14.85h-.05l0,.81,0,.9c0,.61,0,1.23,0,1.83a34.27,34.27,0,0,1-.28,3.49,15.24,15.24,0,0,1-.64,2.8,6.69,6.69,0,0,1-.3.69c-.05.1-48.3-5-74.6-5.83s-52.62-1-78.91-.25q-19.73.63-39.4,2T177.84,141c-13,1.6-26.05,3.5-39,6q-9.69,1.83-19.26,4.13-4.78,1.15-9.53,2.48c-3.16.89-6.31,1.83-9.39,2.93,3.12-1,6.3-1.8,9.49-2.56s6.38-1.46,9.59-2.11q9.63-1.94,19.35-3.37c13-2,26-3.37,39-4.46s26.11-1.78,39.18-2.21,26.16-.53,39.23-.45c26.16.25,52.29,1.41,78.37,3.27s52.09,4.51,78,7.69l2.06.26,1.85-1.19a11.28,11.28,0,0,0,3.24-3.17,16.17,16.17,0,0,0,1.61-3.05,26.06,26.06,0,0,0,1.45-5.33,42.15,42.15,0,0,0,.54-4.87c.05-.8.08-1.58.09-2.38v-1.19c0-.42,0-.76,0-1.29Z"/><text class="cls-3" transform="translate(252.18 172.66)"><tspan xml:space="preserve"> Giving li</tspan><tspan class="cls-4" x="61.65" y="0">f</tspan><tspan x="66.51" y="0">e </tspan><tspan class="cls-5" x="78.72" y="0">t</tspan><tspan class="cls-6" x="84.32" y="0">o the </tspan><tspan class="cls-7" x="124.48" y="0">w</tspan><tspan class="cls-6" x="136.49" y="0">o</tspan><tspan class="cls-8" x="145.68" y="0">r</tspan><tspan x="151.37" y="0">ld</tspan></text><path class="cls-9" d="M417.5,130.75s.05.78.05,2"/><path class="cls-10" d="M417.38,136.73c-.33,3.8-1.27,8.28-3.78,9.89-124.47-13-208.56-8-258.2-1.24"/><path class="cls-9" d="M153.42,145.65l-2,.28"/></svg>